<?xml version="1.0" encoding="UTF-8" standalone="no"?>
<!-- Created with Inkscape (http://www.inkscape.org/) -->

<svg
   width="116.35938mm"
   height="52.648537mm"
   viewBox="0 0 116.35938 52.648537"
   version="1.1"
   id="svg1"
   inkscape:export-filename="bitmap.svg"
   inkscape:export-xdpi="96"
   inkscape:export-ydpi="96"
   sodipodi:docname="cart_silhoutte.svg"
   inkscape:version="1.3 (0e150ed6c4, 2023-07-21)"
   xmlns:inkscape="http://www.inkscape.org/namespaces/inkscape"
   xmlns:sodipodi="http://sodipodi.sourceforge.net/DTD/sodipodi-0.dtd"
   xmlns="http://www.w3.org/2000/svg"
   xmlns:svg="http://www.w3.org/2000/svg">
  <sodipodi:namedview
     id="namedview1"
     pagecolor="#ffffff"
     bordercolor="#000000"
     borderopacity="0.25"
     inkscape:showpageshadow="2"
     inkscape:pageopacity="0.0"
     inkscape:pagecheckerboard="0"
     inkscape:deskcolor="#d1d1d1"
     inkscape:document-units="mm"
     inkscape:clip-to-page="false"
     inkscape:zoom="1.4142136"
     inkscape:cx="289.20667"
     inkscape:cy="112.78353"
     inkscape:window-width="1920"
     inkscape:window-height="1009"
     inkscape:window-x="1912"
     inkscape:window-y="-8"
     inkscape:window-maximized="1"
     inkscape:current-layer="layer1" />
  <defs
     id="defs1" />
  <g
     inkscape:label="Layer 1"
     inkscape:groupmode="layer"
     id="layer1"
     transform="translate(-22.276676,-31.123681)">
    <path
       style="fill:#ffffff;stroke-width:0.264583"
       d="m 23.814567,31.487483 h -1.537891 v -0.363802 h 0.988053 z"
       id="path23" />
    <path
       style="fill:#000000;stroke-width:0.264583"
       d="m 80.448125,47.333431 56.850245,-15.232975 1.33769,4.99233 -57.84499,15.499519 z"
       id="path24" />
    <path
       id="path25"
       style="stroke-width:0.264583;fill:#000000"
       d="M 22.320601 31.194994 L 32.279166 68.360685 L 44.216422 68.360685 A 17.118614 17.118614 0 0 0 61.166809 83.772147 A 17.118614 17.118614 0 0 0 78.117195 68.360685 L 90.131966 68.360685 L 100.0125 31.485416 L 23.8125 31.485416 L 22.320601 31.194994 z M 61.166809 53.276851 A 13.283296 13.283296 0 0 1 74.449719 66.560278 A 13.283296 13.283296 0 0 1 61.166809 79.843188 A 13.283296 13.283296 0 0 1 47.883382 66.560278 A 13.283296 13.283296 0 0 1 61.166809 53.276851 z " />
    <path
       id="path27"
       style="stroke-width:0.264583"
       d="m 63.832594,66.560059 a 2.6660137,2.6660137 0 0 1 -2.666014,2.666013 2.6660137,2.6660137 0 0 1 -2.666014,-2.666013 2.6660137,2.6660137 0 0 1 2.666014,-2.666014 2.6660137,2.6660137 0 0 1 2.666014,2.666014 z" />
    <path
       id="rect27"
       style="stroke-width:0.264583"
       d="m 45.357586,65.343979 h 31.617987 v 2.432153 H 45.357586 Z" />
    <path
       id="rect27-9"
       style="stroke-width:0.264583"
       transform="rotate(90)"
       d="m 50.751068,-62.38266 h 31.617987 v 2.432153 H 50.751068 Z" />
    <path
       id="rect27-6"
       style="stroke-width:0.264583"
       transform="rotate(135)"
       d="m -11.995222,-91.53244 h 31.617987 v 2.432153 h -31.617987 z" />
    <path
       id="rect27-9-1"
       style="stroke-width:0.264583"
       transform="rotate(-135)"
       d="m -106.12537,-5.0298457 h 31.61799 v 2.4321527 h -31.61799 z" />
  </g>
</svg>
